<svg xmlns="http://www.w3.org/2000/svg" width="1180" height="680">
<rect width="100%" height="100%" fill="white"/>
<text x="590.0" y="46" text-anchor="middle" font-size="30" font-family="Arial">图C 平均耗时与稳定性对比</text>
<text x="590.0" y="76" text-anchor="middle" font-size="16" font-family="Arial" fill="#555">靶机192.168.8.128，端口1-1024，5轮；柱=平均耗时，误差线=标准差</text>
<line x1="110" y1="90" x2="110" y2="510" stroke="black"/>
<line x1="110" y1="510" x2="1120" y2="510" stroke="black"/>
<line x1="104" y1="510.0" x2="110" y2="510.0" stroke="black"/>
<text x="98" y="515.0" text-anchor="end" font-size="13" font-family="Arial">0</text>
<line x1="104" y1="426.0" x2="110" y2="426.0" stroke="black"/>
<text x="98" y="431.0" text-anchor="end" font-size="13" font-family="Arial">396</text>
<line x1="110" y1="426.0" x2="1120" y2="426.0" stroke="#ececec"/>
<line x1="104" y1="342.0" x2="110" y2="342.0" stroke="black"/>
<text x="98" y="347.0" text-anchor="end" font-size="13" font-family="Arial">792</text>
<line x1="110" y1="342.0" x2="1120" y2="342.0" stroke="#ececec"/>
<line x1="104" y1="258.0" x2="110" y2="258.0" stroke="black"/>
<text x="98" y="263.0" text-anchor="end" font-size="13" font-family="Arial">1189</text>
<line x1="110" y1="258.0" x2="1120" y2="258.0" stroke="#ececec"/>
<line x1="104" y1="174.0" x2="110" y2="174.0" stroke="black"/>
<text x="98" y="179.0" text-anchor="end" font-size="13" font-family="Arial">1585</text>
<line x1="110" y1="174.0" x2="1120" y2="174.0" stroke="#ececec"/>
<line x1="104" y1="90.0" x2="110" y2="90.0" stroke="black"/>
<text x="98" y="95.0" text-anchor="end" font-size="13" font-family="Arial">1981</text>
<line x1="110" y1="90.0" x2="1120" y2="90.0" stroke="#ececec"/>
<rect x="110.0" y="465.3" width="300.0" height="44.7" fill="#2E86AB"/>
<text x="260.0" y="453.3" text-anchor="middle" font-size="14" font-family="Arial">211.0 ms</text>
<line x1="260.0" y1="461.6" x2="260.0" y2="469.0" stroke="#333" stroke-width="2"/>
<line x1="250.0" y1="461.6" x2="270.0" y2="461.6" stroke="#333" stroke-width="2"/>
<line x1="250.0" y1="469.0" x2="270.0" y2="469.0" stroke="#333" stroke-width="2"/>
<text x="260.0" y="485.0" text-anchor="middle" font-size="12" font-family="Arial" fill="#333">±17.3</text>
<text x="260.0" y="546" text-anchor="middle" font-size="15" font-family="Arial">rscan(aggressive, connect)</text>
<rect x="465.0" y="439.1" width="300.0" height="70.9" fill="#F39C12"/>
<text x="615.0" y="427.1" text-anchor="middle" font-size="14" font-family="Arial">334.4 ms</text>
<line x1="615.0" y1="347.3" x2="615.0" y2="510.0" stroke="#333" stroke-width="2"/>
<line x1="605.0" y1="347.3" x2="625.0" y2="347.3" stroke="#333" stroke-width="2"/>
<line x1="605.0" y1="510.0" x2="625.0" y2="510.0" stroke="#333" stroke-width="2"/>
<text x="615.0" y="526.0" text-anchor="middle" font-size="12" font-family="Arial" fill="#333">±433.6</text>
<text x="615.0" y="546" text-anchor="middle" font-size="15" font-family="Arial">nmap(-sT)</text>
<rect x="820.0" y="242.5" width="300.0" height="267.5" fill="#4E9F3D"/>
<text x="970.0" y="230.5" text-anchor="middle" font-size="14" font-family="Arial">1262.2 ms</text>
<line x1="970.0" y1="128.2" x2="970.0" y2="356.8" stroke="#333" stroke-width="2"/>
<line x1="960.0" y1="128.2" x2="980.0" y2="128.2" stroke="#333" stroke-width="2"/>
<line x1="960.0" y1="356.8" x2="980.0" y2="356.8" stroke="#333" stroke-width="2"/>
<text x="970.0" y="372.8" text-anchor="middle" font-size="12" font-family="Arial" fill="#333">±539.5</text>
<text x="970.0" y="546" text-anchor="middle" font-size="15" font-family="Arial">rustscan(+nmap -sT)</text>
</svg>