<svg xmlns="http://www.w3.org/2000/svg" width="1120" height="650">
<rect width="100%" height="100%" fill="white"/>
<text x="560.0" y="42" text-anchor="middle" font-size="28" font-family="Arial">图B 一致性与速度综合评分</text>
<text x="560.0" y="70" text-anchor="middle" font-size="15" font-family="Arial" fill="#555">评分=0.65*Jaccard(对nmap) + 0.35*速度归一化</text>
<line x1="110" y1="80" x2="110" y2="490" stroke="black"/>
<line x1="110" y1="490" x2="1075" y2="490" stroke="black"/>
<line x1="104" y1="490.0" x2="110" y2="490.0" stroke="black"/>
<text x="98" y="495.0" text-anchor="end" font-size="13" font-family="Arial">0.0</text>
<line x1="104" y1="408.0" x2="110" y2="408.0" stroke="black"/>
<text x="98" y="413.0" text-anchor="end" font-size="13" font-family="Arial">0.2</text>
<line x1="110" y1="408.0" x2="1075" y2="408.0" stroke="#ececec"/>
<line x1="104" y1="326.0" x2="110" y2="326.0" stroke="black"/>
<text x="98" y="331.0" text-anchor="end" font-size="13" font-family="Arial">0.4</text>
<line x1="110" y1="326.0" x2="1075" y2="326.0" stroke="#ececec"/>
<line x1="104" y1="244.0" x2="110" y2="244.0" stroke="black"/>
<text x="98" y="249.0" text-anchor="end" font-size="13" font-family="Arial">0.6</text>
<line x1="110" y1="244.0" x2="1075" y2="244.0" stroke="#ececec"/>
<line x1="104" y1="162.0" x2="110" y2="162.0" stroke="black"/>
<text x="98" y="167.0" text-anchor="end" font-size="13" font-family="Arial">0.8</text>
<line x1="110" y1="162.0" x2="1075" y2="162.0" stroke="#ececec"/>
<line x1="104" y1="80.0" x2="110" y2="80.0" stroke="black"/>
<text x="98" y="85.0" text-anchor="end" font-size="13" font-family="Arial">1.0</text>
<line x1="110" y1="80.0" x2="1075" y2="80.0" stroke="#ececec"/>
<rect x="110.0" y="80.0" width="291.7" height="410.0" fill="#4E9F3D"/>
<text x="255.8" y="70.0" text-anchor="middle" font-size="14" font-family="Arial">1.0000</text>
<text x="255.8" y="524" text-anchor="middle" font-size="15" font-family="Arial">#1 nmap(默认)</text>
<rect x="446.7" y="168.2" width="291.7" height="321.8" fill="#F39C12"/>
<text x="592.5" y="158.2" text-anchor="middle" font-size="14" font-family="Arial">0.7848</text>
<text x="592.5" y="524" text-anchor="middle" font-size="15" font-family="Arial">#2 rustscan(默认)</text>
<rect x="783.3" y="205.4" width="291.7" height="284.6" fill="#2E86AB"/>
<text x="929.2" y="195.4" text-anchor="middle" font-size="14" font-family="Arial">0.6941</text>
<text x="929.2" y="524" text-anchor="middle" font-size="15" font-family="Arial">#3 rscan(aggressive)</text>
</svg>