<svg xmlns="http://www.w3.org/2000/svg" width="1000" height="560">
<rect width="1000" height="560" fill="white"/>
<text x="500.0" y="34" text-anchor="middle" font-size="22" font-family="Arial">Local Port Scan Accuracy Comparison</text>
<line x1="90" y1="60" x2="90" y2="440" stroke="black"/>
<line x1="90" y1="440" x2="970" y2="440" stroke="black"/>
<line x1="85" y1="440.0" x2="90" y2="440.0" stroke="black"/>
<text x="80" y="444.0" text-anchor="end" font-size="12" font-family="Arial">0.0</text>
<line x1="85" y1="364.0" x2="90" y2="364.0" stroke="black"/>
<text x="80" y="368.0" text-anchor="end" font-size="12" font-family="Arial">0.2</text>
<line x1="90" y1="364.0" x2="970" y2="364.0" stroke="#eaeaea"/>
<line x1="85" y1="288.0" x2="90" y2="288.0" stroke="black"/>
<text x="80" y="292.0" text-anchor="end" font-size="12" font-family="Arial">0.4</text>
<line x1="90" y1="288.0" x2="970" y2="288.0" stroke="#eaeaea"/>
<line x1="85" y1="212.0" x2="90" y2="212.0" stroke="black"/>
<text x="80" y="216.0" text-anchor="end" font-size="12" font-family="Arial">0.6</text>
<line x1="90" y1="212.0" x2="970" y2="212.0" stroke="#eaeaea"/>
<line x1="85" y1="136.0" x2="90" y2="136.0" stroke="black"/>
<text x="80" y="140.0" text-anchor="end" font-size="12" font-family="Arial">0.8</text>
<line x1="90" y1="136.0" x2="970" y2="136.0" stroke="#eaeaea"/>
<line x1="85" y1="60.0" x2="90" y2="60.0" stroke="black"/>
<text x="80" y="64.0" text-anchor="end" font-size="12" font-family="Arial">1.0</text>
<line x1="90" y1="60.0" x2="970" y2="60.0" stroke="#eaeaea"/>
<text x="223.3" y="492" text-anchor="middle" font-size="13" font-family="Arial">rscan</text>
<rect x="90.0" y="60.0" width="60.7" height="380.0" fill="#5DADE2"/>
<text x="120.3" y="54.0" text-anchor="middle" font-size="10" font-family="Arial">1.00</text>
<rect x="158.7" y="60.0" width="60.7" height="380.0" fill="#58D68D"/>
<text x="189.0" y="54.0" text-anchor="middle" font-size="10" font-family="Arial">1.00</text>
<rect x="227.3" y="60.0" width="60.7" height="380.0" fill="#F5B041"/>
<text x="257.7" y="54.0" text-anchor="middle" font-size="10" font-family="Arial">1.00</text>
<rect x="296.0" y="60.0" width="60.7" height="380.0" fill="#AF7AC5"/>
<text x="326.3" y="54.0" text-anchor="middle" font-size="10" font-family="Arial">1.00</text>
<text x="530.0" y="492" text-anchor="middle" font-size="13" font-family="Arial">rustscan</text>
<rect x="396.7" y="60.0" width="60.7" height="380.0" fill="#5DADE2"/>
<text x="427.0" y="54.0" text-anchor="middle" font-size="10" font-family="Arial">1.00</text>
<rect x="465.3" y="60.0" width="60.7" height="380.0" fill="#58D68D"/>
<text x="495.7" y="54.0" text-anchor="middle" font-size="10" font-family="Arial">1.00</text>
<rect x="534.0" y="60.0" width="60.7" height="380.0" fill="#F5B041"/>
<text x="564.3" y="54.0" text-anchor="middle" font-size="10" font-family="Arial">1.00</text>
<rect x="602.7" y="60.0" width="60.7" height="380.0" fill="#AF7AC5"/>
<text x="633.0" y="54.0" text-anchor="middle" font-size="10" font-family="Arial">1.00</text>
<text x="836.7" y="492" text-anchor="middle" font-size="13" font-family="Arial">nmap</text>
<rect x="703.3" y="60.0" width="60.7" height="380.0" fill="#5DADE2"/>
<text x="733.7" y="54.0" text-anchor="middle" font-size="10" font-family="Arial">1.00</text>
<rect x="772.0" y="60.0" width="60.7" height="380.0" fill="#58D68D"/>
<text x="802.3" y="54.0" text-anchor="middle" font-size="10" font-family="Arial">1.00</text>
<rect x="840.7" y="60.0" width="60.7" height="380.0" fill="#F5B041"/>
<text x="871.0" y="54.0" text-anchor="middle" font-size="10" font-family="Arial">1.00</text>
<rect x="909.3" y="60.0" width="60.7" height="380.0" fill="#AF7AC5"/>
<text x="939.7" y="54.0" text-anchor="middle" font-size="10" font-family="Arial">1.00</text>
<rect x="790" y="70" width="12" height="12" fill="#5DADE2"/>
<text x="808" y="80" font-size="12" font-family="Arial">precision</text>
<rect x="790" y="90" width="12" height="12" fill="#58D68D"/>
<text x="808" y="100" font-size="12" font-family="Arial">recall</text>
<rect x="790" y="110" width="12" height="12" fill="#F5B041"/>
<text x="808" y="120" font-size="12" font-family="Arial">f1</text>
<rect x="790" y="130" width="12" height="12" fill="#AF7AC5"/>
<text x="808" y="140" font-size="12" font-family="Arial">accuracy</text>
</svg>