<svg xmlns="http://www.w3.org/2000/svg" width="1000" height="560">
<rect width="1000" height="560" fill="white"/>
<text x="500.0" y="34" text-anchor="middle" font-size="22" font-family="Arial">Local Port Scan Timing Comparison</text>
<line x1="90" y1="60" x2="90" y2="440" stroke="black"/>
<line x1="90" y1="440" x2="970" y2="440" stroke="black"/>
<line x1="85" y1="440.0" x2="90" y2="440.0" stroke="black"/>
<text x="80" y="444.0" text-anchor="end" font-size="12" font-family="Arial">0</text>
<line x1="85" y1="364.0" x2="90" y2="364.0" stroke="black"/>
<text x="80" y="368.0" text-anchor="end" font-size="12" font-family="Arial">5</text>
<line x1="90" y1="364.0" x2="970" y2="364.0" stroke="#eaeaea"/>
<line x1="85" y1="288.0" x2="90" y2="288.0" stroke="black"/>
<text x="80" y="292.0" text-anchor="end" font-size="12" font-family="Arial">11</text>
<line x1="90" y1="288.0" x2="970" y2="288.0" stroke="#eaeaea"/>
<line x1="85" y1="212.0" x2="90" y2="212.0" stroke="black"/>
<text x="80" y="216.0" text-anchor="end" font-size="12" font-family="Arial">16</text>
<line x1="90" y1="212.0" x2="970" y2="212.0" stroke="#eaeaea"/>
<line x1="85" y1="136.0" x2="90" y2="136.0" stroke="black"/>
<text x="80" y="140.0" text-anchor="end" font-size="12" font-family="Arial">22</text>
<line x1="90" y1="136.0" x2="970" y2="136.0" stroke="#eaeaea"/>
<line x1="85" y1="60.0" x2="90" y2="60.0" stroke="black"/>
<text x="80" y="64.0" text-anchor="end" font-size="12" font-family="Arial">28</text>
<line x1="90" y1="60.0" x2="970" y2="60.0" stroke="#eaeaea"/>
<rect x="90.0" y="127.9" width="266.7" height="312.1" fill="#2E86AB"/>
<text x="223.3" y="119.9" text-anchor="middle" font-size="12" font-family="Arial">23</text>
<text x="223.3" y="468" text-anchor="middle" font-size="13" font-family="Arial">rscan</text>
<rect x="396.7" y="60.0" width="266.7" height="380.0" fill="#F39C12"/>
<text x="530.0" y="52.0" text-anchor="middle" font-size="12" font-family="Arial">28</text>
<text x="530.0" y="468" text-anchor="middle" font-size="13" font-family="Arial">rustscan</text>
<rect x="703.3" y="168.6" width="266.7" height="271.4" fill="#4E9F3D"/>
<text x="836.7" y="160.6" text-anchor="middle" font-size="12" font-family="Arial">20</text>
<text x="836.7" y="468" text-anchor="middle" font-size="13" font-family="Arial">nmap</text>
</svg>