<svg xmlns="http://www.w3.org/2000/svg" width="1200" height="680">
<rect width="100%" height="100%" fill="white"/>
<text x="600.0" y="50" text-anchor="middle" font-size="30" font-family="Arial">图E 开放端口分布（端口号）</text>
<text x="600.0" y="80" text-anchor="middle" font-size="16" font-family="Arial" fill="#555">柱高表示端口号大小，仅用于展示开放端口位置分布</text>
<line x1="100" y1="100" x2="100" y2="500" stroke="black"/>
<line x1="100" y1="500" x2="1150" y2="500" stroke="black"/>
<line x1="94" y1="500.0" x2="100" y2="500.0" stroke="black"/>
<text x="88" y="505.0" text-anchor="end" font-size="13" font-family="Arial">0</text>
<line x1="94" y1="420.0" x2="100" y2="420.0" stroke="black"/>
<text x="88" y="425.0" text-anchor="end" font-size="13" font-family="Arial">3757</text>
<line x1="100" y1="420.0" x2="1150" y2="420.0" stroke="#ececec"/>
<line x1="94" y1="340.0" x2="100" y2="340.0" stroke="black"/>
<text x="88" y="345.0" text-anchor="end" font-size="13" font-family="Arial">7515</text>
<line x1="100" y1="340.0" x2="1150" y2="340.0" stroke="#ececec"/>
<line x1="94" y1="260.0" x2="100" y2="260.0" stroke="black"/>
<text x="88" y="265.0" text-anchor="end" font-size="13" font-family="Arial">11273</text>
<line x1="100" y1="260.0" x2="1150" y2="260.0" stroke="#ececec"/>
<line x1="94" y1="180.0" x2="100" y2="180.0" stroke="black"/>
<text x="88" y="185.0" text-anchor="end" font-size="13" font-family="Arial">15031</text>
<line x1="100" y1="180.0" x2="1150" y2="180.0" stroke="#ececec"/>
<line x1="94" y1="100.0" x2="100" y2="100.0" stroke="black"/>
<text x="88" y="105.0" text-anchor="end" font-size="13" font-family="Arial">18789</text>
<line x1="100" y1="100.0" x2="1150" y2="100.0" stroke="#ececec"/>
<rect x="100.0" y="499.5" width="132.9" height="0.5" fill="#4E9F3D"/>
<text x="166.4" y="491.5" text-anchor="middle" font-size="12" font-family="Arial">22</text>
<text x="166.4" y="526" text-anchor="middle" font-size="13" font-family="Arial">P1</text>
<rect x="252.9" y="463.5" width="132.9" height="36.5" fill="#4E9F3D"/>
<text x="319.3" y="455.5" text-anchor="middle" font-size="12" font-family="Arial">1716</text>
<text x="319.3" y="526" text-anchor="middle" font-size="13" font-family="Arial">P2</text>
<rect x="405.7" y="452.4" width="132.9" height="47.6" fill="#4E9F3D"/>
<text x="472.1" y="444.4" text-anchor="middle" font-size="12" font-family="Arial">2234</text>
<text x="472.1" y="526" text-anchor="middle" font-size="13" font-family="Arial">P3</text>
<rect x="558.6" y="368.6" width="132.9" height="131.4" fill="#4E9F3D"/>
<text x="625.0" y="360.6" text-anchor="middle" font-size="12" font-family="Arial">6174</text>
<text x="625.0" y="526" text-anchor="middle" font-size="13" font-family="Arial">P4</text>
<rect x="711.4" y="331.9" width="132.9" height="168.1" fill="#4E9F3D"/>
<text x="777.9" y="323.9" text-anchor="middle" font-size="12" font-family="Arial">7897</text>
<text x="777.9" y="526" text-anchor="middle" font-size="13" font-family="Arial">P5</text>
<rect x="864.3" y="327.9" width="132.9" height="172.1" fill="#4E9F3D"/>
<text x="930.7" y="319.9" text-anchor="middle" font-size="12" font-family="Arial">8082</text>
<text x="930.7" y="526" text-anchor="middle" font-size="13" font-family="Arial">P6</text>
<rect x="1017.1" y="100.0" width="132.9" height="400.0" fill="#4E9F3D"/>
<text x="1083.6" y="92.0" text-anchor="middle" font-size="12" font-family="Arial">18789</text>
<text x="1083.6" y="526" text-anchor="middle" font-size="13" font-family="Arial">P7</text>
</svg>