<svg xmlns="http://www.w3.org/2000/svg" width="1100" height="620">
<rect width="100%" height="100%" fill="white"/>
<text x="550.0" y="36" text-anchor="middle" font-size="24" font-family="Arial">Accuracy-First Composite Score</text>
<text x="550.0" y="58" text-anchor="middle" font-size="14" font-family="Arial" fill="#555">score = 0.7*F1 + 0.3*(min_time/time)</text>
<line x1="90" y1="70" x2="90" y2="490" stroke="black"/>
<line x1="90" y1="490" x2="1065" y2="490" stroke="black"/>
<line x1="85" y1="490.0" x2="90" y2="490.0" stroke="black"/>
<text x="80" y="494.0" text-anchor="end" font-size="12" font-family="Arial">0.0</text>
<line x1="85" y1="406.0" x2="90" y2="406.0" stroke="black"/>
<text x="80" y="410.0" text-anchor="end" font-size="12" font-family="Arial">0.2</text>
<line x1="90" y1="406.0" x2="1065" y2="406.0" stroke="#ececec"/>
<line x1="85" y1="322.0" x2="90" y2="322.0" stroke="black"/>
<text x="80" y="326.0" text-anchor="end" font-size="12" font-family="Arial">0.4</text>
<line x1="90" y1="322.0" x2="1065" y2="322.0" stroke="#ececec"/>
<line x1="85" y1="238.0" x2="90" y2="238.0" stroke="black"/>
<text x="80" y="242.0" text-anchor="end" font-size="12" font-family="Arial">0.6</text>
<line x1="90" y1="238.0" x2="1065" y2="238.0" stroke="#ececec"/>
<line x1="85" y1="154.0" x2="90" y2="154.0" stroke="black"/>
<text x="80" y="158.0" text-anchor="end" font-size="12" font-family="Arial">0.8</text>
<line x1="90" y1="154.0" x2="1065" y2="154.0" stroke="#ececec"/>
<line x1="85" y1="70.0" x2="90" y2="70.0" stroke="black"/>
<text x="80" y="74.0" text-anchor="end" font-size="12" font-family="Arial">1.0</text>
<line x1="90" y1="70.0" x2="1065" y2="70.0" stroke="#ececec"/>
<rect x="90.0" y="226.8" width="298.3" height="263.2" fill="#4E9F3D"/>
<text x="239.2" y="218.8" text-anchor="middle" font-size="13" font-family="Arial">0.6267</text>
<text x="239.2" y="518" text-anchor="middle" font-size="14" font-family="Arial">#1 nmap</text>
<rect x="428.3" y="259.6" width="298.3" height="230.4" fill="#F39C12"/>
<text x="577.5" y="251.6" text-anchor="middle" font-size="13" font-family="Arial">0.5487</text>
<text x="577.5" y="518" text-anchor="middle" font-size="14" font-family="Arial">#2 rustscan</text>
<rect x="766.7" y="348.5" width="298.3" height="141.5" fill="#2E86AB"/>
<text x="915.8" y="340.5" text-anchor="middle" font-size="13" font-family="Arial">0.3370</text>
<text x="915.8" y="518" text-anchor="middle" font-size="14" font-family="Arial">#3 rscan</text>
</svg>